# xmcd
#
# Track frame offsets:
#	150
#	11080
#	23620
#	35267
#	45387
#	56490
#	68092
#	78445
#	91302
#	100872
#	111782
#	124290
#	137645
#	151195
#	162205
#	174250
#	186425
#	195215
#	207260
#	219065
#	232670
#	243822
#	257420
#	269120
#	282632
#	296312
#	308662
#	320100
#
# Disc length: 4423 seconds
#
# Revision: 1
# Processed by: cddbd v1.5.2PL0 Copyright (c) Steve Scherf et al.
# Submitted via: EZCDAudioConverter 7.0.6.1
#
DISCID=7411451c
DTITLE=Various Artist - The Complete Stax and Volt Singles 3/9
DYEAR=2016
DGENRE=
TTITLE0=Otis Redding - Pain In My Heart
TTITLE1=Carla Thomas - Gee Whiz, It's Christmas
TTITLE2=Booker T. and The MGs - Mo' Onions
TTITLE3=Floyd Newman - Frog Stomp
TTITLE4=Rufus Thomas - Can Your Monkey Do The Dog
TTITLE5=Bobby Marchan - You Won't Do Right
TTITLE6=The Drapels - Wondering (When My Love Is Coming Home)
TTITLE7=Deanie Parker - Each Step I Take
TTITLE8=The Van-Dells - The Honeydripper
TTITLE9=William Bell - Who Will It Be Tomorrow
TTITLE10=Otis Redding - Come To Me
TTITLE11=Otis Redding - Don't Leave Me This Way
TTITLE12=Eddie Jefferson - I Don't Want You Anymore
TTITLE13=The Cobras - Restless
TTITLE14=Rufus Thomas - Somebody Stole My Dog
TTITLE15=Barbara and The Browns - Big Party
TTITLE16=Rufus and Carla - That's Really Some Good
TTITLE17=Rufus and Carla - Night Time Is The Right Time
TTITLE18=Otis Redding - Security
TTITLE19=Oscar Mack - Dream Girl
TTITLE20=Dorothy Williams - Closer To My Baby
TTITLE21=Carla Thomas - I've Got No Time To Lose
TTITLE22=The Drapels - Young Man
TTITLE23=Booker T. and The MGs - Soul Dressing
TTITLE24=Wendy Rene - After Laughter (Comes Tears)
TTITLE25=Ivory Joe Hunter - Can't Explain How It Happened
TTITLE26=The Mar‐Keys - Bush Bash
TTITLE27=The Fleets - Please Return To Me
EXTD=
EXTT0=
EXTT1=
EXTT2=
EXTT3=
EXTT4=
EXTT5=
EXTT6=
EXTT7=
EXTT8=
EXTT9=
EXTT10=
EXTT11=
EXTT12=
EXTT13=
EXTT14=
EXTT15=
EXTT16=
EXTT17=
EXTT18=
EXTT19=
EXTT20=
EXTT21=
EXTT22=
EXTT23=
EXTT24=
EXTT25=
EXTT26=
EXTT27=
PLAYORDER=
